<svg xmlns="http://www.w3.org/2000/svg" xmlns:xlink="http://www.w3.org/1999/xlink" version="1.1" width="96" height="96" viewBox="0 0 96 96">
<path d="M14.284 26c-0.664 0-1.312-0.332-1.696-0.936-0.584-0.936-0.296-2.168 0.636-2.756l15.016-9.4c0.924-0.58 2.172-0.304 2.752 0.636 0.584 0.936 0.292 2.168-0.636 2.756l-15.012 9.404c-0.324 0.2-0.692 0.296-1.060 0.296z" fill="#000000"/>
	<path d="M81.724 26c-0.384 0-0.752-0.104-1.084-0.328l-14.392-9.4c-0.916-0.604-1.18-1.844-0.584-2.768 0.612-0.924 1.852-1.176 2.768-0.58l14.38 9.4c0.924 0.604 1.184 1.844 0.584 2.768-0.388 0.588-1.024 0.908-1.672 0.908z" fill="#000000"/>
	<path d="M7.432 74c-0.088 0-0.188-0.008-0.28-0.020-1.092-0.156-1.856-1.168-1.704-2.26l6.86-48c0.156-1.092 1.192-1.852 2.256-1.696 1.084 0.156 1.86 1.172 1.704 2.264l-6.86 48c-0.14 0.992-0.992 1.712-1.976 1.712z" fill="#000000"/>
	<path d="M9.504 86.164c-0.008 0-0.012 0-0.020 0l-7.5-0.080c-1.096-0.008-1.98-0.904-1.98-2v-12.084c0-0.54 0.22-1.064 0.6-1.436 0.396-0.376 0.9-0.588 1.452-0.564l11 0.332c0.612 0.020 1.204 0.328 1.564 0.828 0.368 0.5 0.476 1.144 0.296 1.748l-3.5 11.828c-0.244 0.844-1.020 1.428-1.912 1.428zM4.004 82.1l4.012 0.048 2.336-7.9-6.348-0.188v8.040z" fill="#000000"/>
	<path d="M92.004 96h-12.28c-0.968 0-1.796-0.692-1.968-1.644l-5.752-31.94v31.584c0 1.1-0.9 2-2 2h-44c-1.1 0-2-0.9-2-2v-31.584l-5.752 31.94c-0.168 0.948-1 1.644-1.968 1.644h-12.28c-0.592 0-1.152-0.256-1.532-0.72-0.384-0.452-0.548-1.056-0.436-1.632l1.78-10 3.936 0.704-1.356 7.648h8.228l9.412-52.352c0.188-1.016 1.084-1.72 2.148-1.64 1.032 0.092 1.82 0.956 1.82 1.992v52h40v-52c0-1.036 0.788-1.9 1.82-1.992 1.092-0.080 1.96 0.62 2.148 1.636l9.416 52.356h8.228l-1.36-7.648 3.932-0.704 1.78 10c0.104 0.584-0.060 1.18-0.436 1.64-0.376 0.456-0.936 0.712-1.528 0.712z" fill="#000000"/>
	<path d="M88.576 74c-0.976 0-1.836-0.72-1.976-1.72l-6.86-48c-0.156-1.088 0.604-2.108 1.704-2.264 1.084-0.156 2.096 0.604 2.256 1.696l6.86 48c0.152 1.088-0.608 2.104-1.704 2.26-0.096 0.020-0.192 0.028-0.28 0.028z" fill="#000000"/>
	<path d="M86.504 86.164c-0.892 0-1.668-0.584-1.916-1.428l-3.5-11.836c-0.18-0.592-0.080-1.244 0.296-1.744 0.36-0.5 0.928-0.808 1.564-0.828l11-0.332c0.548-0.028 1.064 0.188 1.452 0.568 0.384 0.376 0.592 0.896 0.592 1.432v12.084c0 1.096-0.892 1.992-1.98 2l-7.5 0.080c0.004 0.004 0 0.004-0.008 0.004zM85.656 74.252l2.336 7.9 4.012-0.048v-8.044l-6.348 0.192z" fill="#000000"/>
	<path d="M38.004 94c-1.1 0-2-0.9-2-2v-52c0-0.308 0.072-0.612 0.212-0.892l18-36.124c0.492-0.996 1.704-1.392 2.68-0.9 0.992 0.492 1.392 1.692 0.912 2.68l-17.788 35.704v51.532c-0.016 1.1-0.916 2-2.016 2z" fill="#000000"/>
	<path d="M48.004 22c-0.764 0-1.496-0.44-1.828-1.188l-8-18c-0.444-1.008 0.008-2.192 1.016-2.64 1.012-0.444 2.188 0.004 2.64 1.016l8 18c0.444 1.008-0.008 2.192-1.016 2.64-0.264 0.116-0.54 0.172-0.812 0.172z" fill="#000000"/>
	<path d="M38.004 42c-0.708 0-1.4-0.376-1.752-1.044-0.528-0.968-0.168-2.18 0.788-2.716l21.448-11.696 7.012-14.020-10.24-8.524h-14.556l-10.224 8.524 7.124 14.256 5.208 4.82c0.808 0.752 0.86 2.016 0.104 2.828s-2.008 0.856-2.828 0.108l-5.468-5.068c-0.172-0.16-0.316-0.356-0.424-0.572l-8-16c-0.42-0.832-0.204-1.832 0.512-2.428l12-10c0.36-0.304 0.808-0.468 1.276-0.468h16c0.464 0 0.916 0.164 1.276 0.464l12 10c0.716 0.596 0.916 1.6 0.508 2.428l-8 16c-0.18 0.364-0.468 0.668-0.828 0.86l-22 12c-0.284 0.168-0.612 0.248-0.936 0.248z" fill="#000000"/>
	<path d="M52.004 48h-4c-1.1 0-2-0.896-2-2s0.9-2 2-2h4c1.1 0 2 0.896 2 2s-0.9 2-2 2z" fill="#000000"/>
	<path d="M52.004 60h-4c-1.1 0-2-0.9-2-2s0.9-2 2-2h4c1.1 0 2 0.9 2 2s-0.9 2-2 2z" fill="#000000"/>
	<path d="M52.004 72h-4c-1.1 0-2-0.9-2-2s0.9-2 2-2h4c1.1 0 2 0.9 2 2s-0.9 2-2 2z" fill="#000000"/>
	<path d="M52.004 84h-4c-1.1 0-2-0.9-2-2s0.9-2 2-2h4c1.1 0 2 0.9 2 2s-0.9 2-2 2z" fill="#000000"/>
</svg>