<svg xmlns="http://www.w3.org/2000/svg" xmlns:xlink="http://www.w3.org/1999/xlink" version="1.1" id="Your_Icon" x="0px" y="0px" width="100px" height="100px" viewBox="0 0 100 100" enable-background="new 0 0 100 100" xml:space="preserve">
<path d="M61.997,24.052L61.997,24.052c-1.027-0.58,3.951-11.337,3.951-11.337c0.58-1.027,1.883-1.389,2.908-0.81l0,0  c1.027,0.58,1.39,1.882,0.811,2.909C69.667,14.814,63.023,24.631,61.997,24.052z"/>
<path d="M55.323,22.186L55.323,22.186c-1.179,0.013-2.246-11.792-2.246-11.792c-0.012-1.18,0.936-2.145,2.115-2.156l0,0  c1.18-0.011,2.144,0.937,2.154,2.115C57.347,10.353,56.503,22.175,55.323,22.186z"/>
<path d="M48.612,23.908L48.612,23.908c-1.016,0.599-7.843-9.091-7.843-9.091c-0.599-1.016-0.262-2.324,0.754-2.924l0,0  c1.016-0.599,2.325-0.262,2.924,0.755C44.448,12.648,49.627,23.309,48.612,23.908z"/>
<path d="M80.952,33.68c-1.888-2.24-6.894-1.912-9.736-0.094c-3.506,2.241-5.945,4.689-7.815,7.383l-0.001-0.003  c0,0-0.006,0.011-0.016,0.028c-0.13,0.186-0.257,0.374-0.381,0.562c-0.666,0.906-2.152,2.579-4.276,3.014  c-1.565,0.32-2.76-0.447-3.38-0.992c-0.156-0.161-0.314-0.322-0.473-0.484l0,0C45.841,33.91,34.52,25.131,26.381,20.838  c-2.259-1.191-5.059-0.326-6.25,1.935c-1.192,2.26-0.327,5.059,1.934,6.25c5.681,2.997,12.623,8.558,19.041,14.841  c4.378,3.524,9.221,8.289,13.962,13.763c2.309,2.665,2.018,6.71-0.646,9.019c-1.162,1.006-2.647,1.561-4.184,1.561  c-0.51,0-1.012-0.062-1.498-0.18c0.088,0.499,0.117,1.012,0.084,1.53c-0.109,1.704-0.875,3.264-2.158,4.392  c-1.167,1.027-2.667,1.593-4.22,1.593c-0.509,0-1.01-0.062-1.496-0.18c0.125,0.579,0.171,1.18,0.131,1.787  c-0.114,1.704-0.884,3.262-2.169,4.386c-0.942,0.824-2.098,1.349-3.324,1.521c6.658,6.283,16.349,11.101,28.833,3.94  c7.913-4.539,15.461-13.475,5.041-28.846c0.848-7.309,2.879-12.993,10.387-17.592C82.675,38.825,82.929,36.024,80.952,33.68z"/>
<g>
	<path d="M50.237,66.271c-1.249,0-2.49-0.521-3.372-1.54c-5.387-6.218-10.796-11.341-15.231-14.423   c-2.022-1.405-2.522-4.184-1.117-6.206c1.405-2.021,4.184-2.521,6.206-1.116c5.028,3.494,11.023,9.144,16.882,15.907   c1.613,1.861,1.411,4.677-0.45,6.289C52.312,65.912,51.271,66.271,50.237,66.271z"/>
</g>
<g>
	<path d="M42.446,73.605c-1.237,0-2.468-0.513-3.35-1.515C33.939,66.229,28.77,61.38,24.538,58.438   c-2.022-1.405-2.522-4.183-1.117-6.205c1.405-2.021,4.184-2.521,6.206-1.116c6.159,4.28,12.19,10.565,16.165,15.085   c1.626,1.849,1.446,4.666-0.403,6.292C44.542,73.239,43.491,73.605,42.446,73.605z"/>
</g>
<g>
	<path d="M34.704,81.181c-1.241,0-2.475-0.515-3.357-1.522c-4.577-5.23-9.171-9.609-12.938-12.33   c-1.996-1.442-2.444-4.229-1.002-6.226s4.229-2.444,6.225-1.002c4.357,3.148,9.346,7.881,14.425,13.686   c1.622,1.854,1.434,4.67-0.419,6.291C36.792,80.817,35.746,81.181,34.704,81.181z"/>
</g>
</svg>