<svg xmlns="http://www.w3.org/2000/svg" xmlns:xlink="http://www.w3.org/1999/xlink" version="1.1" id="Layer_1" x="0px" y="0px" width="100px" height="100px" viewBox="0 0 100 100" enable-background="new 0 0 100 100" xml:space="preserve">
<path fill="#000000" d="M68.227,19.838c-1.36-2.781-12.478-7.543-18.896-6.902c-6.42,0.641-16.313,5.044-16.565,8.396  c-0.252,3.352-2.37,27.005,1.459,32.385c2.487,3.493,6.428,8.069,11.731,9.731C46,67.484,46.03,71.178,46,71.905  c-0.07,1.73,1.504,3.358,2.028,3.961c0.523,0.598,0.271,1.12-1.181,2.862c-1.458,1.745,0.642,4.149,0.731,4.408  c0.09,0.256-0.167,0.607,0.359,1.294c0.527,0.687,0.875,1.117,0.883,1.981c0.008,0.867-0.422,1.129-0.676,1.563  c-0.254,0.437-0.601,0.526-0.595,1.046c0.004,0.519,3.065,4.122,3.672,4.286c0.609,0.172,2.986-4.354,2.986-4.354l0.588-25.685  c0.311-0.104,0.615-0.185,0.932-0.309c10.415-4.133,12.66-12.343,12.721-16.248C68.513,42.807,69.834,23.126,68.227,19.838z   M45.607,17.533c1.009-0.871,6.628-0.389,6.628-0.389c0.611,0.064,2.838-0.052,3.467,0.945c0.631,0.999-0.115,2.487-1.581,3.391  c-1.364,0.842-3.979,1.079-6.497,0.198C45.103,20.798,44.6,18.403,45.607,17.533z M41.662,36.984  c2.58-3.071,6.232-3.735,6.353-3.735c0,0,0,0,0.233,0c0.234,0,0.784,5.807,0.784,5.807s-1.918,0.578-2.782,1.479  c-0.766,0.803-1.408,2.814-1.408,2.814s-5.992,0.104-6.113,0.032C38.613,43.307,39.172,39.943,41.662,36.984z M45.857,55.36  c-1.28-0.538-2.921-1.476-4.278-3.09c-2.487-2.961-3.045-6.324-2.927-6.395c0.116-0.071,6.107,0.032,6.107,0.032  s0.643,2.007,1.411,2.814c0.864,0.901,2.78,1.477,2.78,1.477s-0.058,0.612-0.144,1.435c-0.178,1.719-0.479,4.371-0.639,4.371  c-0.236,0-0.236,0-0.236,0C47.875,56.004,47.012,55.845,45.857,55.36z M59.21,52.271c-1.34,1.595-2.959,2.532-4.232,3.07  c-1.18,0.501-2.063,0.663-2.12,0.663c0,0,0,0-0.235,0c-0.159,0-0.464-2.682-0.643-4.4c-0.083-0.809-0.139-1.405-0.139-1.405  s1.918-0.575,2.779-1.477c0.769-0.807,1.411-2.814,1.411-2.814s5.99-0.104,6.11-0.032C62.259,45.947,61.697,49.309,59.21,52.271z   M62.221,43.38c-0.117,0.073-6.107-0.032-6.107-0.032s-0.645-2.011-1.41-2.814c-0.865-0.901-2.784-1.479-2.784-1.479  s0.551-5.807,0.786-5.807c0.233,0,0.233,0,0.233,0c0.118,0,3.771,0.664,6.353,3.735C61.778,39.943,62.337,43.307,62.221,43.38z"/>
</svg>