<svg xmlns="http://www.w3.org/2000/svg" xmlns:xlink="http://www.w3.org/1999/xlink" version="1.1" id="Layer_1" x="0px" y="0px" width="100px" height="100px" viewBox="0 0 100 100" enable-background="new 0 0 100 100" xml:space="preserve">
<path d="M49.938,16.63c4.042,0,7.317-3.278,7.317-7.315c0-4.04-3.277-7.316-7.317-7.316c-4.042,0-7.317,3.274-7.317,7.316  C42.623,13.353,45.896,16.63,49.938,16.63z"/>
<path d="M32.342,53.557c0,1.764,1.431,3.193,3.196,3.193c1.764,0,3.195-1.432,3.195-3.193c0-0.002,0-0.002,0-0.002h0.003V50.75  h-6.394V53.557z"/>
<path d="M59.816,19.663H40.111c-3.884,0-7.769,2.811-7.769,6.501v23.462h6.394V30.741h0.007c0.01-0.375,0.314-0.677,0.692-0.677  c0.377,0,0.681,0.302,0.691,0.677c0,0.001,0.001,0.003,0.001,0.004v0.029V93.4c0,0.004-0.001,0.008-0.001,0.01  c0,2.535,2.055,4.59,4.59,4.59c2.534,0,4.589-2.055,4.589-4.588V93.41V57.266h0.007c0-0.012-0.007-0.021-0.007-0.033  c0-0.383,0.312-0.695,0.696-0.695s0.694,0.314,0.694,0.695c0,0.012-0.006,0.021-0.006,0.033h0.011v36.125  c0,0.008-0.002,0.014-0.002,0.02c0,2.535,2.055,4.59,4.59,4.59c2.531,0,4.588-2.055,4.588-4.588h0.002V30.741h0.008  c0.012-0.375,0.314-0.677,0.693-0.677c0.383,0,0.693,0.312,0.693,0.696c0,0.011-0.006,0.019-0.006,0.029v18.837h6.391V26.617  C67.658,22.708,63.861,19.663,59.816,19.663z M50,49.264c-0.663,0-1.2-0.537-1.2-1.2c0-0.663,0.537-1.201,1.2-1.201  s1.2,0.538,1.2,1.201C51.199,48.727,50.663,49.264,50,49.264z M50,41.864c-0.663,0-1.2-0.537-1.2-1.2c0-0.663,0.537-1.201,1.2-1.201  s1.2,0.538,1.2,1.201C51.199,41.327,50.663,41.864,50,41.864z M50,34.463c-0.663,0-1.2-0.537-1.2-1.2c0-0.663,0.537-1.201,1.2-1.201  s1.2,0.538,1.2,1.201C51.199,33.926,50.663,34.463,50,34.463z M50,27.063c-0.663,0-1.2-0.537-1.2-1.2c0-0.663,0.537-1.201,1.2-1.201  s1.2,0.538,1.2,1.201C51.199,26.526,50.663,27.063,50,27.063z"/>
<path d="M61.268,53.557c0,0,0,0,0,0.002c0.002,1.764,1.432,3.193,3.195,3.193s3.193-1.43,3.195-3.193v-0.002V50.75h-6.391V53.557z"/>
</svg>